<svg width="32" height="32" viewBox="0 0 32 32" fill="none" xmlns="http://www.w3.org/2000/svg">
<path d="M16.0068 5.16184C19.2148 5.16184 19.5945 5.17609 20.856 5.23235C22.0289 5.28411 22.6615 5.48064 23.084 5.64491C23.6423 5.86095 24.0453 6.12349 24.4625 6.54055C24.885 6.96287 25.1424 7.36118 25.363 7.91927C25.5274 8.34158 25.724 8.97843 25.7757 10.1464C25.832 11.4126 25.8463 11.7921 25.8463 14.9944C25.8463 18.1966 25.832 18.5807 25.7757 19.8424C25.724 21.0148 25.5274 21.6472 25.363 22.0695C25.1469 22.6276 24.885 23.0304 24.467 23.4474C24.0445 23.8698 23.6461 24.1271 23.0885 24.3476C22.666 24.5119 22.0281 24.7084 20.8605 24.7602C19.5938 24.8164 19.2141 24.8307 16.0105 24.8307C12.807 24.8307 12.4227 24.8164 11.1605 24.7602C9.98762 24.7084 9.35501 24.5119 8.93252 24.3476C8.37421 24.1316 7.97123 23.8698 7.55325 23.4519C7.13076 23.0296 6.87337 22.6313 6.65274 22.074C6.4884 21.6517 6.29179 21.0141 6.24001 19.8469C6.18373 18.5807 6.16947 18.2011 6.16947 14.9989C6.16947 11.7966 6.18373 11.4126 6.24001 10.1509C6.29179 8.97843 6.4884 8.34609 6.65274 7.92377C6.86886 7.36568 7.13151 6.96287 7.54875 6.54505C7.97123 6.12274 8.36971 5.86545 8.92802 5.64491C9.35051 5.48064 9.98762 5.28411 11.156 5.23235C12.4175 5.17609 12.7979 5.16184 16.006 5.16184H16.0068ZM16.0068 3.00075C12.7469 3.00075 12.3394 3.015 11.0585 3.07126C9.78275 3.12752 8.90551 3.3338 8.14608 3.62935C7.35364 3.9384 6.68276 4.34646 6.01713 5.01707C5.34626 5.68317 4.93803 6.35302 4.62885 7.14065C4.33319 7.90502 4.12682 8.77665 4.07054 10.0519C4.01426 11.3368 4 11.7441 4 15.0026C4 18.2611 4.01426 18.6684 4.07054 19.9489C4.12682 21.2241 4.33319 22.101 4.62885 22.8601C4.93878 23.6522 5.34626 24.3228 6.01713 24.9882C6.68276 25.6535 7.35364 26.0669 8.14158 26.3714C8.90626 26.6669 9.77825 26.8732 11.054 26.9295C12.3342 26.9857 12.7424 27 16.0023 27C19.2621 27 19.6703 26.9857 20.9505 26.9295C22.2263 26.8732 23.1035 26.6669 23.8629 26.3714C24.6509 26.0669 25.3217 25.6543 25.9874 24.9882C26.653 24.3221 27.0665 23.6522 27.3711 22.8646C27.6668 22.1002 27.8732 21.2286 27.9295 19.9534C27.9857 18.6737 28 18.2656 28 15.0071C28 11.7486 27.9857 11.3413 27.9295 10.0609C27.8732 8.78565 27.6668 7.90877 27.3711 7.14965C27.0755 6.35227 26.6673 5.68242 25.9971 5.01632C25.3315 4.35096 24.6606 3.93765 23.8727 3.6331C23.108 3.33755 22.236 3.13127 20.9603 3.07501C19.6756 3.01425 19.2673 3 16.0075 3L16.0068 3.00075Z" fill="#242424"/>
<path d="M16 9C12.6879 9 10 11.6872 10 15C10 18.3128 12.6872 21 16 21C19.3128 21 22 18.3128 22 15C22 11.6879 19.3128 9 16 9V9ZM16 18.8917C13.8508 18.8917 12.1083 17.1492 12.1083 15C12.1083 12.8508 13.8508 11.1083 16 11.1083C18.1492 11.1083 19.8917 12.8508 19.8917 15C19.8917 17.1492 18.1492 18.8917 16 18.8917Z" fill="#242424"/>
<path d="M24 8.5C24 9.32856 23.3286 10 22.5 10C21.6714 10 21 9.32856 21 8.5C21 7.67144 21.6714 7 22.5 7C23.3286 7 24 7.67144 24 8.5V8.5Z" fill="#242424"/>
</svg>
