<svg width="32" height="32" viewBox="0 0 32 32" fill="none" xmlns="http://www.w3.org/2000/svg">
<path d="M13 11H17.6125V13.3642H17.6783C18.32 12.2133 19.8908 11 22.2317 11C27.1 11 28 14.0308 28 17.9725V26H23.1925V18.8833C23.1925 17.1858 23.1575 15.0025 20.6917 15.0025C18.1875 15.0025 17.8058 16.8508 17.8058 18.76V26H13V11Z" fill="black"/>
<path d="M4 11H9V26H4V11Z" fill="black"/>
<path d="M9 6.5C9 7.88083 7.88083 9 6.5 9C5.11917 9 4 7.88083 4 6.5C4 5.11917 5.11917 4 6.5 4C7.88083 4 9 5.11917 9 6.5Z" fill="black"/>
</svg>
