<svg width="207" height="25" viewBox="0 0 207 25" fill="none" xmlns="http://www.w3.org/2000/svg">
<g clip-path="url(#clip0)">
<path fill-rule="evenodd" clip-rule="evenodd" d="M197.571 2.95973C197.309 3.55178 197.178 4.19171 197.178 4.87953C197.178 5.58478 197.309 6.2356 197.571 6.832C197.832 7.4284 198.186 7.94644 198.635 8.38613C199.083 8.82582 199.606 9.16973 200.202 9.41787C200.799 9.666 201.432 9.79007 202.103 9.79007C202.764 9.79007 203.394 9.666 203.99 9.41787C204.587 9.16973 205.107 8.82582 205.551 8.38613C205.995 7.94644 206.348 7.4284 206.61 6.832C206.871 6.2356 207.001 5.58478 207.001 4.87953C207.001 4.19171 206.871 3.55178 206.61 2.95973C206.348 2.36768 205.995 1.85399 205.551 1.41865C205.107 0.98332 204.587 0.641589 203.99 0.393449C203.394 0.145309 202.764 0.0212402 202.103 0.0212402C201.432 0.0212402 200.799 0.145309 200.202 0.393449C199.606 0.641589 199.083 0.98332 198.635 1.41865C198.186 1.85399 197.832 2.36768 197.571 2.95973ZM198.063 4.87961C198.063 5.48037 198.166 6.03542 198.369 6.54475C198.574 7.05409 198.858 7.49594 199.219 7.87033C199.58 8.24473 200.007 8.53857 200.499 8.75188C200.991 8.96519 201.524 9.07185 202.099 9.07185C202.665 9.07185 203.192 8.96519 203.679 8.75188C204.168 8.53857 204.592 8.24473 204.954 7.87033C205.315 7.49594 205.597 7.05409 205.802 6.54475C206.007 6.03542 206.109 5.48037 206.109 4.87961C206.109 4.29627 206.007 3.7521 205.802 3.24711C205.597 2.74214 205.315 2.30463 204.954 1.93459C204.592 1.56457 204.168 1.2729 203.679 1.05958C203.192 0.846267 202.665 0.739611 202.099 0.739611C201.524 0.739611 200.991 0.846267 200.499 1.05958C200.007 1.2729 199.58 1.56457 199.219 1.93459C198.858 2.30463 198.574 2.74214 198.369 3.24711C198.166 3.7521 198.063 4.29627 198.063 4.87961ZM202.401 2.04583H200.193V7.75301H201.081V5.29776H202.021L203.576 7.75301H204.53L202.897 5.23246C203.324 5.18892 203.68 5.04744 203.968 4.80801C204.255 4.56858 204.398 4.19202 204.398 3.67833C204.398 3.1298 204.236 2.72059 203.909 2.45069C203.582 2.18079 203.08 2.04583 202.401 2.04583ZM202.012 4.58025H201.085V2.76491H202.262C202.409 2.76491 202.559 2.7758 202.712 2.79756C202.864 2.81933 202.999 2.86069 203.116 2.92163C203.234 2.98258 203.33 3.06965 203.404 3.18284C203.478 3.29602 203.515 3.44838 203.515 3.63994C203.515 3.86631 203.473 4.04261 203.391 4.16886C203.308 4.2951 203.197 4.3887 203.058 4.44965C202.919 4.5106 202.757 4.5476 202.574 4.56066C202.392 4.57371 202.204 4.58025 202.012 4.58025Z" fill="white"/>
<path d="M15.7969 8.21535H22.4321C21.9244 3.41918 17.5207 0 11.8064 0C5.28926 0 0 4.43442 0 12.323C0 19.8849 4.7934 24.5527 11.8537 24.5527C18.1818 24.5527 22.7154 20.725 22.7154 14.1902V10.876H11.9953V15.4972H16.3873C16.3282 17.5743 14.8406 18.9046 11.9009 18.9046C8.50061 18.9046 6.75326 16.4307 6.75326 12.2297C6.75326 8.08698 8.64228 5.64805 11.9481 5.64805C14.0024 5.64805 15.3955 6.58161 15.7969 8.21535Z" fill="white"/>
<path d="M48.5066 12.2763C48.5066 4.29438 43.3118 0 36.7474 0C30.1359 0 24.9883 4.29438 24.9883 12.2763C24.9883 20.2116 30.1359 24.5527 36.7474 24.5527C43.3118 24.5527 48.5066 20.2583 48.5066 12.2763ZM41.7534 12.2763C41.7534 16.5707 40.0061 18.9046 36.7474 18.9046C33.4889 18.9046 31.7416 16.5707 31.7416 12.2763C31.7416 7.98196 33.4889 5.64805 36.7474 5.64805C40.0061 5.64805 41.7534 7.98196 41.7534 12.2763Z" fill="white"/>
<path d="M74.2761 12.2763C74.2761 4.29438 69.0813 0 62.5169 0C55.9053 0 50.7578 4.29438 50.7578 12.2763C50.7578 20.2116 55.9053 24.5527 62.5169 24.5527C69.0813 24.5527 74.2761 20.2583 74.2761 12.2763ZM67.5228 12.2763C67.5228 16.5707 65.7754 18.9046 62.5169 18.9046C59.2584 18.9046 57.511 16.5707 57.511 12.2763C57.511 7.98196 59.2584 5.64805 62.5169 5.64805C65.7754 5.64805 67.5228 7.98196 67.5228 12.2763Z" fill="white"/>
<path d="M85.9246 24.2259C93.2917 24.2259 97.9671 19.7448 97.9671 12.2762C97.9671 4.80776 93.2917 0.32666 85.8301 0.32666H76.6211V24.2259H85.9246ZM83.1855 18.7178V5.83468H85.4996C89.2775 5.83468 91.3555 7.2817 91.3555 12.2762C91.3555 17.2708 89.2775 18.7178 85.6885 18.7178H83.1855Z" fill="white"/>
<path d="M117.12 9.68066H100.496V14.9733H117.12V9.68066Z" fill="white"/>
<path d="M126.632 0.32666H120.068V24.2259H126.632V0.32666Z" fill="white"/>
<path d="M139.045 24.2259C146.413 24.2259 151.087 19.7448 151.087 12.2762C151.087 4.80776 146.413 0.32666 138.951 0.32666H129.742V24.2259H139.045ZM136.306 18.7178V5.83468H138.62C142.398 5.83468 144.476 7.2817 144.476 12.2762C144.476 17.2708 142.398 18.7178 138.809 18.7178H136.306Z" fill="white"/>
<path d="M153.359 24.2259H170.738V18.9979H159.924V14.8902H169.889V9.66228H159.924V5.55462H170.786V0.32666H153.359V24.2259Z" fill="white"/>
<path d="M179.491 24.2259L180.883 19.6514H188.865L190.258 24.2259H197.341L189.361 0.32666H180.388L172.406 24.2259H179.491ZM182.371 14.7969L184.78 6.90828H184.969L187.377 14.7969H182.371Z" fill="white"/>
</g>
<defs>
<clipPath id="clip0">
<rect width="207" height="25" fill="white"/>
</clipPath>
</defs>
</svg>
