<svg width="207" height="25" viewBox="0 0 207 25" fill="none" xmlns="http://www.w3.org/2000/svg">
<path fill-rule="evenodd" clip-rule="evenodd" d="M197.57 2.95997C197.308 3.55202 197.177 4.19195 197.177 4.87977C197.177 5.58502 197.308 6.23584 197.57 6.83224C197.831 7.42864 198.185 7.94668 198.634 8.38637C199.082 8.82606 199.605 9.16997 200.201 9.41811C200.798 9.66624 201.431 9.79031 202.102 9.79031C202.763 9.79031 203.393 9.66624 203.989 9.41811C204.586 9.16997 205.106 8.82606 205.55 8.38637C205.994 7.94668 206.347 7.42864 206.609 6.83224C206.87 6.23584 207 5.58502 207 4.87977C207 4.19195 206.87 3.55202 206.609 2.95997C206.347 2.36792 205.994 1.85423 205.55 1.41889C205.106 0.983564 204.586 0.641833 203.989 0.393693C203.393 0.145553 202.763 0.0214844 202.102 0.0214844C201.431 0.0214844 200.798 0.145553 200.201 0.393693C199.605 0.641833 199.082 0.983564 198.634 1.41889C198.185 1.85423 197.831 2.36792 197.57 2.95997ZM198.062 4.87985C198.062 5.48061 198.165 6.03566 198.368 6.54499C198.573 7.05433 198.857 7.49618 199.218 7.87057C199.579 8.24497 200.006 8.53881 200.498 8.75212C200.99 8.96543 201.523 9.07209 202.098 9.07209C202.664 9.07209 203.191 8.96543 203.678 8.75212C204.167 8.53881 204.591 8.24497 204.953 7.87057C205.314 7.49618 205.596 7.05433 205.801 6.54499C206.006 6.03566 206.108 5.48061 206.108 4.87985C206.108 4.29651 206.006 3.75234 205.801 3.24735C205.596 2.74238 205.314 2.30487 204.953 1.93483C204.591 1.56481 204.167 1.27314 203.678 1.05982C203.191 0.846511 202.664 0.739855 202.098 0.739855C201.523 0.739855 200.99 0.846511 200.498 1.05982C200.006 1.27314 199.579 1.56481 199.218 1.93483C198.857 2.30487 198.573 2.74238 198.368 3.24735C198.165 3.75234 198.062 4.29651 198.062 4.87985ZM202.4 2.04607H200.192V7.75325H201.08V5.298H202.02L203.575 7.75325H204.529L202.896 5.2327C203.323 5.18916 203.679 5.04768 203.967 4.80825C204.254 4.56882 204.397 4.19226 204.397 3.67857C204.397 3.13004 204.235 2.72083 203.908 2.45093C203.581 2.18103 203.079 2.04607 202.4 2.04607ZM202.011 4.58049H201.084V2.76515H202.261C202.408 2.76515 202.558 2.77604 202.711 2.7978C202.863 2.81957 202.998 2.86093 203.115 2.92187C203.233 2.98282 203.329 3.06989 203.403 3.18308C203.477 3.29626 203.514 3.44862 203.514 3.64018C203.514 3.86655 203.472 4.04285 203.39 4.1691C203.307 4.29534 203.196 4.38894 203.057 4.44989C202.918 4.51084 202.756 4.54784 202.573 4.5609C202.391 4.57395 202.203 4.58049 202.011 4.58049Z" fill="#212121"/>
<path d="M15.7969 8.21535H22.4321C21.9244 3.41918 17.5207 0 11.8064 0C5.28926 0 0 4.43442 0 12.323C0 19.8849 4.7934 24.5527 11.8537 24.5527C18.1818 24.5527 22.7154 20.725 22.7154 14.1902V10.876H11.9953V15.4972H16.3873C16.3282 17.5743 14.8406 18.9046 11.9009 18.9046C8.50061 18.9046 6.75326 16.4307 6.75326 12.2297C6.75326 8.08698 8.64228 5.64805 11.9481 5.64805C14.0024 5.64805 15.3955 6.58161 15.7969 8.21535Z" fill="#212121"/>
<path d="M48.5076 12.2763C48.5076 4.29438 43.3128 0 36.7484 0C30.1369 0 24.9893 4.29438 24.9893 12.2763C24.9893 20.2116 30.1369 24.5527 36.7484 24.5527C43.3128 24.5527 48.5076 20.2583 48.5076 12.2763ZM41.7544 12.2763C41.7544 16.5707 40.0071 18.9046 36.7484 18.9046C33.4899 18.9046 31.7426 16.5707 31.7426 12.2763C31.7426 7.98196 33.4899 5.64805 36.7484 5.64805C40.0071 5.64805 41.7544 7.98196 41.7544 12.2763Z" fill="#212121"/>
<path d="M74.2761 12.2763C74.2761 4.29438 69.0813 0 62.5169 0C55.9053 0 50.7578 4.29438 50.7578 12.2763C50.7578 20.2116 55.9053 24.5527 62.5169 24.5527C69.0813 24.5527 74.2761 20.2583 74.2761 12.2763ZM67.5228 12.2763C67.5228 16.5707 65.7754 18.9046 62.5169 18.9046C59.2584 18.9046 57.511 16.5707 57.511 12.2763C57.511 7.98196 59.2584 5.64805 62.5169 5.64805C65.7754 5.64805 67.5228 7.98196 67.5228 12.2763Z" fill="#212121"/>
<path d="M85.9236 24.2264C93.2907 24.2264 97.9661 19.7453 97.9661 12.2767C97.9661 4.80824 93.2907 0.327148 85.8291 0.327148H76.6201V24.2264H85.9236ZM83.1845 18.7183V5.83516H85.4986C89.2765 5.83516 91.3545 7.28218 91.3545 12.2767C91.3545 17.2713 89.2765 18.7183 85.6875 18.7183H83.1845Z" fill="#212121"/>
<path d="M117.121 9.68066H100.497V14.9733H117.121V9.68066Z" fill="#212121"/>
<path d="M126.632 0.327148H120.068V24.2264H126.632V0.327148Z" fill="#212121"/>
<path d="M139.046 24.2264C146.414 24.2264 151.088 19.7453 151.088 12.2767C151.088 4.80824 146.414 0.327148 138.952 0.327148H129.743V24.2264H139.046ZM136.307 18.7183V5.83516H138.621C142.399 5.83516 144.477 7.28218 144.477 12.2767C144.477 17.2713 142.399 18.7183 138.81 18.7183H136.307Z" fill="#212121"/>
<path d="M153.359 24.2264H170.738V18.9984H159.924V14.8907H169.889V9.66276H159.924V5.5551H170.786V0.327148H153.359V24.2264Z" fill="#212121"/>
<path d="M179.491 24.2264L180.883 19.6519H188.865L190.258 24.2264H197.341L189.361 0.327148H180.388L172.406 24.2264H179.491ZM182.371 14.7974L184.78 6.90876H184.969L187.377 14.7974H182.371Z" fill="#212121"/>
</svg>
