<svg width="207" height="25" viewBox="0 0 207 25" fill="none" xmlns="http://www.w3.org/2000/svg">
<path fill-rule="evenodd" clip-rule="evenodd" d="M197.571 2.95985C197.309 3.5519 197.178 4.19183 197.178 4.87965C197.178 5.5849 197.309 6.23572 197.571 6.83212C197.832 7.42852 198.186 7.94656 198.635 8.38625C199.083 8.82594 199.606 9.16985 200.202 9.41799C200.799 9.66612 201.432 9.79019 202.103 9.79019C202.764 9.79019 203.394 9.66612 203.99 9.41799C204.587 9.16985 205.107 8.82594 205.551 8.38625C205.995 7.94656 206.348 7.42852 206.61 6.83212C206.871 6.23572 207.001 5.5849 207.001 4.87965C207.001 4.19183 206.871 3.5519 206.61 2.95985C206.348 2.3678 205.995 1.85411 205.551 1.41877C205.107 0.983442 204.587 0.641711 203.99 0.393571C203.394 0.145431 202.764 0.0213623 202.103 0.0213623C201.432 0.0213623 200.799 0.145431 200.202 0.393571C199.606 0.641711 199.083 0.983442 198.635 1.41877C198.186 1.85411 197.832 2.3678 197.571 2.95985ZM198.063 4.87973C198.063 5.48049 198.166 6.03554 198.369 6.54487C198.574 7.05421 198.858 7.49606 199.219 7.87045C199.58 8.24485 200.007 8.53869 200.499 8.752C200.991 8.96531 201.524 9.07197 202.099 9.07197C202.665 9.07197 203.192 8.96531 203.679 8.752C204.168 8.53869 204.592 8.24485 204.954 7.87045C205.315 7.49606 205.597 7.05421 205.802 6.54487C206.007 6.03554 206.109 5.48049 206.109 4.87973C206.109 4.29639 206.007 3.75222 205.802 3.24723C205.597 2.74226 205.315 2.30475 204.954 1.93471C204.592 1.56469 204.168 1.27302 203.679 1.0597C203.192 0.846389 202.665 0.739733 202.099 0.739733C201.524 0.739733 200.991 0.846389 200.499 1.0597C200.007 1.27302 199.58 1.56469 199.219 1.93471C198.858 2.30475 198.574 2.74226 198.369 3.24723C198.166 3.75222 198.063 4.29639 198.063 4.87973ZM202.401 2.04595H200.193V7.75313H201.081V5.29788H202.021L203.576 7.75313H204.53L202.897 5.23258C203.324 5.18904 203.68 5.04756 203.968 4.80813C204.255 4.5687 204.398 4.19214 204.398 3.67845C204.398 3.12992 204.236 2.72071 203.909 2.45081C203.582 2.18091 203.08 2.04595 202.401 2.04595ZM202.012 4.58037H201.085V2.76503H202.262C202.409 2.76503 202.559 2.77592 202.712 2.79768C202.864 2.81945 202.999 2.86081 203.116 2.92175C203.234 2.9827 203.33 3.06977 203.404 3.18296C203.478 3.29614 203.515 3.4485 203.515 3.64006C203.515 3.86643 203.473 4.04273 203.391 4.16898C203.308 4.29522 203.197 4.38882 203.058 4.44977C202.919 4.51072 202.757 4.54772 202.574 4.56078C202.392 4.57383 202.204 4.58037 202.012 4.58037Z" fill="#D5D5D2"/>
<path d="M15.7969 8.21535H22.4321C21.9244 3.41918 17.5207 0 11.8064 0C5.28926 0 0 4.43442 0 12.323C0 19.8849 4.7934 24.5527 11.8537 24.5527C18.1818 24.5527 22.7154 20.725 22.7154 14.1902V10.876H11.9953V15.4972H16.3873C16.3282 17.5743 14.8406 18.9046 11.9009 18.9046C8.50061 18.9046 6.75326 16.4307 6.75326 12.2297C6.75326 8.08698 8.64228 5.64805 11.9481 5.64805C14.0024 5.64805 15.3955 6.58161 15.7969 8.21535Z" fill="#D5D5D2"/>
<path d="M48.5066 12.2763C48.5066 4.29438 43.3118 0 36.7474 0C30.1359 0 24.9883 4.29438 24.9883 12.2763C24.9883 20.2116 30.1359 24.5527 36.7474 24.5527C43.3118 24.5527 48.5066 20.2583 48.5066 12.2763ZM41.7534 12.2763C41.7534 16.5707 40.0061 18.9046 36.7474 18.9046C33.4889 18.9046 31.7416 16.5707 31.7416 12.2763C31.7416 7.98196 33.4889 5.64805 36.7474 5.64805C40.0061 5.64805 41.7534 7.98196 41.7534 12.2763Z" fill="#D5D5D2"/>
<path d="M74.2761 12.2763C74.2761 4.29438 69.0813 0 62.5169 0C55.9053 0 50.7578 4.29438 50.7578 12.2763C50.7578 20.2116 55.9053 24.5527 62.5169 24.5527C69.0813 24.5527 74.2761 20.2583 74.2761 12.2763ZM67.5228 12.2763C67.5228 16.5707 65.7754 18.9046 62.5169 18.9046C59.2584 18.9046 57.511 16.5707 57.511 12.2763C57.511 7.98196 59.2584 5.64805 62.5169 5.64805C65.7754 5.64805 67.5228 7.98196 67.5228 12.2763Z" fill="#D5D5D2"/>
<path d="M85.9246 24.226C93.2917 24.226 97.9671 19.7449 97.9671 12.2763C97.9671 4.80788 93.2917 0.326782 85.8301 0.326782H76.6211V24.226H85.9246ZM83.1855 18.7179V5.8348H85.4996C89.2775 5.8348 91.3555 7.28182 91.3555 12.2763C91.3555 17.2709 89.2775 18.7179 85.6885 18.7179H83.1855Z" fill="#D5D5D2"/>
<path d="M117.12 9.68066H100.496V14.9733H117.12V9.68066Z" fill="#D5D5D2"/>
<path d="M126.632 0.326782H120.068V24.226H126.632V0.326782Z" fill="#D5D5D2"/>
<path d="M139.045 24.226C146.413 24.226 151.087 19.7449 151.087 12.2763C151.087 4.80788 146.413 0.326782 138.951 0.326782H129.742V24.226H139.045ZM136.306 18.7179V5.8348H138.62C142.398 5.8348 144.476 7.28182 144.476 12.2763C144.476 17.2709 142.398 18.7179 138.809 18.7179H136.306Z" fill="#D5D5D2"/>
<path d="M153.359 24.226H170.738V18.998H159.924V14.8903H169.889V9.6624H159.924V5.55474H170.786V0.326782H153.359V24.226Z" fill="#D5D5D2"/>
<path d="M179.491 24.226L180.883 19.6515H188.865L190.258 24.226H197.341L189.361 0.326782H180.388L172.406 24.226H179.491ZM182.371 14.797L184.78 6.9084H184.969L187.377 14.797H182.371Z" fill="#D5D5D2"/>
</svg>
