<svg width="42" height="40" viewBox="0 0 42 40" fill="none" xmlns="http://www.w3.org/2000/svg">
<path d="M7.39779 10.8319H10.0851C9.87945 8.95114 8.09591 7.61035 5.78161 7.61035C3.14216 7.61035 1 9.34927 1 12.4427C1 15.408 2.94134 17.2385 5.80074 17.2385C8.36369 17.2385 10.1998 15.7375 10.1998 13.1749V11.8753H5.85811V13.6874H7.63687C7.61297 14.5019 7.01049 15.0236 5.81986 15.0236C4.44276 15.0236 3.73508 14.0535 3.73508 12.4061C3.73508 10.7816 4.50013 9.82518 5.83899 9.82518C6.67099 9.82518 7.23523 10.1913 7.39779 10.8319Z" fill="#FBFBF8"/>
<path d="M18.4053 11.4065H11.6729V13.4819H18.4053V11.4065Z" fill="#FBFBF8"/>
<path d="M7.39779 10.8319H10.0851C9.87945 8.95114 8.09591 7.61035 5.78161 7.61035C3.14216 7.61035 1 9.34927 1 12.4427C1 15.408 2.94134 17.2385 5.80074 17.2385C8.36369 17.2385 10.1998 15.7375 10.1998 13.1749V11.8753H5.85811V13.6874H7.63687C7.61297 14.5019 7.01049 15.0236 5.81986 15.0236C4.44276 15.0236 3.73508 14.0535 3.73508 12.4061C3.73508 10.7816 4.50013 9.82518 5.83899 9.82518C6.67099 9.82518 7.23523 10.1913 7.39779 10.8319Z" stroke="#D5D5D2" stroke-width="0.156251"/>
<path d="M18.4053 11.4065H11.6729V13.4819H18.4053V11.4065Z" stroke="#D5D5D2" stroke-width="0.156251"/>
<path d="M11.0798 7.26703V9.86852C9.13695 9.66948 7.75195 7.94288 7.75195 5.70245C7.75195 3.14727 9.54821 1.07349 12.7437 1.07349C15.8068 1.07349 17.6976 2.95285 17.6976 5.72097C17.6976 8.20209 16.1471 9.97961 13.5 9.97961H12.1575V5.77652H14.0294V7.49849C14.8708 7.47534 15.4097 6.89209 15.4097 5.73949C15.4097 4.40634 14.4076 3.72125 12.7059 3.72125C11.0278 3.72125 10.0399 4.46189 10.0399 5.758C10.0399 6.56344 10.418 7.10966 11.0798 7.26703Z" fill="#FBFBF8"/>
<path d="M11.6738 17.9229V11.4053H13.8176V17.9229H11.6738Z" fill="#FBFBF8"/>
<path d="M11.0798 7.26703V9.86852C9.13695 9.66948 7.75195 7.94288 7.75195 5.70245C7.75195 3.14727 9.54821 1.07349 12.7437 1.07349C15.8068 1.07349 17.6976 2.95285 17.6976 5.72097C17.6976 8.20209 16.1471 9.97961 13.5 9.97961H12.1575V5.77652H14.0294V7.49849C14.8708 7.47534 15.4097 6.89209 15.4097 5.73949C15.4097 4.40634 14.4076 3.72125 12.7059 3.72125C11.0278 3.72125 10.0399 4.46189 10.0399 5.758C10.0399 6.56344 10.418 7.10966 11.0798 7.26703Z" stroke="#D5D5D2" stroke-width="0.156251"/>
<path d="M11.6738 17.9229V11.4053H13.8176V17.9229H11.6738Z" stroke="#D5D5D2" stroke-width="0.156251"/>
<path d="M34.6027 10.8319H31.9155C32.1211 8.95114 33.9045 7.61035 36.2189 7.61035C38.8583 7.61035 41.0005 9.34927 41.0005 12.4427C41.0005 15.408 39.0592 17.2385 36.1997 17.2385C33.6369 17.2385 31.8008 15.7375 31.8008 13.1749V11.8753H36.1424V13.6874H34.3636C34.3875 14.5019 34.99 15.0236 36.1806 15.0236C37.5577 15.0236 38.2655 14.0535 38.2655 12.4061C38.2655 10.7816 37.5003 9.82518 36.1616 9.82518C35.3296 9.82518 34.7653 10.1913 34.6027 10.8319Z" fill="#FBFBF8"/>
<path d="M23.5947 11.4065H30.3271V13.4819H23.5947V11.4065Z" fill="#FBFBF8"/>
<path d="M34.6027 10.8319H31.9155C32.1211 8.95114 33.9045 7.61035 36.2189 7.61035C38.8583 7.61035 41.0005 9.34927 41.0005 12.4427C41.0005 15.408 39.0592 17.2385 36.1997 17.2385C33.6369 17.2385 31.8008 15.7375 31.8008 13.1749V11.8753H36.1424V13.6874H34.3636C34.3875 14.5019 34.99 15.0236 36.1806 15.0236C37.5577 15.0236 38.2655 14.0535 38.2655 12.4061C38.2655 10.7816 37.5003 9.82518 36.1616 9.82518C35.3296 9.82518 34.7653 10.1913 34.6027 10.8319Z" stroke="#D5D5D2" stroke-width="0.156251"/>
<path d="M23.5947 11.4065H30.3271V13.4819H23.5947V11.4065Z" stroke="#D5D5D2" stroke-width="0.156251"/>
<path d="M30.9195 7.26703V9.86852C32.8623 9.66948 34.2473 7.94288 34.2473 5.70245C34.2473 3.14727 32.451 1.07349 29.2557 1.07349C26.1926 1.07349 24.3018 2.95285 24.3018 5.72097C24.3018 8.20209 25.8523 9.97961 28.4993 9.97961H29.8418V5.77652H27.97V7.49849C27.1286 7.47534 26.5897 6.89209 26.5897 5.73949C26.5897 4.40634 27.5918 3.72125 29.2935 3.72125C30.9715 3.72125 31.9595 4.46189 31.9595 5.758C31.9595 6.56344 31.5814 7.10966 30.9195 7.26703Z" fill="#FBFBF8"/>
<path d="M30.3265 17.9229V11.4053H28.1826V17.9229H30.3265Z" fill="#FBFBF8"/>
<path d="M30.9195 7.26703V9.86852C32.8623 9.66948 34.2473 7.94288 34.2473 5.70245C34.2473 3.14727 32.451 1.07349 29.2557 1.07349C26.1926 1.07349 24.3018 2.95285 24.3018 5.72097C24.3018 8.20209 25.8523 9.97961 28.4993 9.97961H29.8418V5.77652H27.97V7.49849C27.1286 7.47534 26.5897 6.89209 26.5897 5.73949C26.5897 4.40634 27.5918 3.72125 29.2935 3.72125C30.9715 3.72125 31.9595 4.46189 31.9595 5.758C31.9595 6.56344 31.5814 7.10966 30.9195 7.26703Z" stroke="#D5D5D2" stroke-width="0.156251"/>
<path d="M30.3265 17.9229V11.4053H28.1826V17.9229H30.3265Z" stroke="#D5D5D2" stroke-width="0.156251"/>
<path d="M11.0798 33.6371V31.0357C9.13695 31.2348 7.75195 32.9613 7.75195 35.2018C7.75195 37.7569 9.54821 39.8307 12.7437 39.8307C15.8068 39.8307 17.6976 37.9513 17.6976 35.1832C17.6976 32.7021 16.1471 30.9246 13.5 30.9246H12.1575V35.1276H14.0294V33.4056C14.8708 33.4288 15.4097 34.0121 15.4097 35.1647C15.4097 36.4979 14.4076 37.1829 12.7059 37.1829C11.0278 37.1829 10.0399 36.4423 10.0399 35.1462C10.0399 34.3408 10.418 33.7946 11.0798 33.6371Z" fill="#FBFBF8"/>
<path d="M11.6738 22.9817V29.4993H13.8176V22.9817H11.6738Z" fill="#FBFBF8"/>
<path d="M11.0798 33.6371V31.0357C9.13695 31.2348 7.75195 32.9613 7.75195 35.2018C7.75195 37.7569 9.54821 39.8307 12.7437 39.8307C15.8068 39.8307 17.6976 37.9513 17.6976 35.1832C17.6976 32.7021 16.1471 30.9246 13.5 30.9246H12.1575V35.1276H14.0294V33.4056C14.8708 33.4288 15.4097 34.0121 15.4097 35.1647C15.4097 36.4979 14.4076 37.1829 12.7059 37.1829C11.0278 37.1829 10.0399 36.4423 10.0399 35.1462C10.0399 34.3408 10.418 33.7946 11.0798 33.6371Z" stroke="#D5D5D2" stroke-width="0.156251"/>
<path d="M11.6738 22.9817V29.4993H13.8176V22.9817H11.6738Z" stroke="#D5D5D2" stroke-width="0.156251"/>
<path d="M7.39779 30.0721H10.0851C9.87945 31.9529 8.09591 33.2937 5.78161 33.2937C3.14216 33.2937 1 31.5547 1 28.4613C1 25.496 2.94134 23.6655 5.80074 23.6655C8.36369 23.6655 10.1998 25.1665 10.1998 27.7291V29.0287H5.85811V27.2167H7.63687C7.61297 26.402 7.01049 25.8804 5.81986 25.8804C4.44276 25.8804 3.73508 26.8506 3.73508 28.4979C3.73508 30.1224 4.50013 31.0787 5.83899 31.0787C6.67099 31.0787 7.23523 30.7127 7.39779 30.0721Z" fill="#FBFBF8"/>
<path d="M18.4053 29.4973H11.6729V27.4219H18.4053V29.4973Z" fill="#FBFBF8"/>
<path d="M7.39779 30.0721H10.0851C9.87945 31.9529 8.09591 33.2937 5.78161 33.2937C3.14216 33.2937 1 31.5547 1 28.4613C1 25.496 2.94134 23.6655 5.80074 23.6655C8.36369 23.6655 10.1998 25.1665 10.1998 27.7291V29.0287H5.85811V27.2167H7.63687C7.61297 26.402 7.01049 25.8804 5.81986 25.8804C4.44276 25.8804 3.73508 26.8506 3.73508 28.4979C3.73508 30.1224 4.50013 31.0787 5.83899 31.0787C6.67099 31.0787 7.23523 30.7127 7.39779 30.0721Z" stroke="#D5D5D2" stroke-width="0.156251"/>
<path d="M18.4053 29.4973H11.6729V27.4219H18.4053V29.4973Z" stroke="#D5D5D2" stroke-width="0.156251"/>
<path d="M30.9195 33.6371V31.0357C32.8623 31.2348 34.2473 32.9613 34.2473 35.2018C34.2473 37.7569 32.451 39.8307 29.2557 39.8307C26.1926 39.8307 24.3018 37.9513 24.3018 35.1832C24.3018 32.7021 25.8523 30.9246 28.4993 30.9246H29.8418V35.1276H27.97V33.4056C27.1286 33.4288 26.5897 34.0121 26.5897 35.1647C26.5897 36.4979 27.5918 37.1829 29.2935 37.1829C30.9715 37.1829 31.9595 36.4423 31.9595 35.1462C31.9595 34.3408 31.5814 33.7946 30.9195 33.6371Z" fill="#FBFBF8"/>
<path d="M30.3265 22.9817V29.4993H28.1826V22.9817H30.3265Z" fill="#FBFBF8"/>
<path d="M30.9195 33.6371V31.0357C32.8623 31.2348 34.2473 32.9613 34.2473 35.2018C34.2473 37.7569 32.451 39.8307 29.2557 39.8307C26.1926 39.8307 24.3018 37.9513 24.3018 35.1832C24.3018 32.7021 25.8523 30.9246 28.4993 30.9246H29.8418V35.1276H27.97V33.4056C27.1286 33.4288 26.5897 34.0121 26.5897 35.1647C26.5897 36.4979 27.5918 37.1829 29.2935 37.1829C30.9715 37.1829 31.9595 36.4423 31.9595 35.1462C31.9595 34.3408 31.5814 33.7946 30.9195 33.6371Z" stroke="#D5D5D2" stroke-width="0.156251"/>
<path d="M30.3265 22.9817V29.4993H28.1826V22.9817H30.3265Z" stroke="#D5D5D2" stroke-width="0.156251"/>
<path d="M34.6027 30.0721H31.9155C32.1211 31.9529 33.9045 33.2937 36.2189 33.2937C38.8583 33.2937 41.0005 31.5547 41.0005 28.4613C41.0005 25.496 39.0592 23.6655 36.1997 23.6655C33.6369 23.6655 31.8008 25.1665 31.8008 27.7291V29.0287H36.1424V27.2167H34.3636C34.3875 26.402 34.99 25.8804 36.1806 25.8804C37.5577 25.8804 38.2655 26.8506 38.2655 28.4979C38.2655 30.1224 37.5003 31.0787 36.1616 31.0787C35.3296 31.0787 34.7653 30.7127 34.6027 30.0721Z" fill="#FBFBF8"/>
<path d="M23.5947 29.4973H30.3271V27.4219H23.5947V29.4973Z" fill="#FBFBF8"/>
<path d="M34.6027 30.0721H31.9155C32.1211 31.9529 33.9045 33.2937 36.2189 33.2937C38.8583 33.2937 41.0005 31.5547 41.0005 28.4613C41.0005 25.496 39.0592 23.6655 36.1997 23.6655C33.6369 23.6655 31.8008 25.1665 31.8008 27.7291V29.0287H36.1424V27.2167H34.3636C34.3875 26.402 34.99 25.8804 36.1806 25.8804C37.5577 25.8804 38.2655 26.8506 38.2655 28.4979C38.2655 30.1224 37.5003 31.0787 36.1616 31.0787C35.3296 31.0787 34.7653 30.7127 34.6027 30.0721Z" stroke="#D5D5D2" stroke-width="0.156251"/>
<path d="M23.5947 29.4973H30.3271V27.4219H23.5947V29.4973Z" stroke="#D5D5D2" stroke-width="0.156251"/>
<path d="M22.4018 7.67065H19.7275V17.1023H22.4018V7.67065Z" fill="#FBFBF8"/>
<path d="M22.4018 23.5747H19.7275V33.0063H22.4018V23.5747Z" fill="#FBFBF8"/>
<path d="M7.88281 19.1365V21.7255H17.6254V19.1365H7.88281Z" fill="#FBFBF8"/>
<path d="M24.3115 19.1365V21.7255H34.0541V19.1365H24.3115Z" fill="#FBFBF8"/>
</svg>
