<svg width="42" height="40" viewBox="0 0 42 40" fill="none" xmlns="http://www.w3.org/2000/svg">
<path d="M7.39779 10.8319H10.0851C9.87945 8.95114 8.09591 7.61035 5.78161 7.61035C3.14216 7.61035 1 9.34927 1 12.4427C1 15.408 2.94134 17.2385 5.80074 17.2385C8.36369 17.2385 10.1998 15.7375 10.1998 13.1749V11.8753H5.85811V13.6874H7.63687C7.61297 14.5019 7.01049 15.0236 5.81986 15.0236C4.44276 15.0236 3.73508 14.0535 3.73508 12.4061C3.73508 10.7816 4.50013 9.82518 5.83899 9.82518C6.67099 9.82518 7.23523 10.1913 7.39779 10.8319Z" fill="#313131"/>
<path d="M18.4048 11.4065H11.6724V13.4819H18.4048V11.4065Z" fill="#313131"/>
<path d="M7.39779 10.8319H10.0851C9.87945 8.95114 8.09591 7.61035 5.78161 7.61035C3.14216 7.61035 1 9.34927 1 12.4427C1 15.408 2.94134 17.2385 5.80074 17.2385C8.36369 17.2385 10.1998 15.7375 10.1998 13.1749V11.8753H5.85811V13.6874H7.63687C7.61297 14.5019 7.01049 15.0236 5.81986 15.0236C4.44276 15.0236 3.73508 14.0535 3.73508 12.4061C3.73508 10.7816 4.50013 9.82518 5.83899 9.82518C6.67099 9.82518 7.23523 10.1913 7.39779 10.8319Z" stroke="#D5D5D2" stroke-width="0.156251"/>
<path d="M18.4048 11.4065H11.6724V13.4819H18.4048V11.4065Z" stroke="#D5D5D2" stroke-width="0.156251"/>
<path d="M11.08 7.26703V9.86852C9.1372 9.66948 7.7522 7.94288 7.7522 5.70245C7.7522 3.14727 9.54846 1.07349 12.7439 1.07349C15.807 1.07349 17.6978 2.95285 17.6978 5.72097C17.6978 8.20209 16.1473 9.97961 13.5002 9.97961H12.1577V5.77652H14.0296V7.49849C14.871 7.47534 15.4099 6.89209 15.4099 5.73949C15.4099 4.40634 14.4078 3.72125 12.7061 3.72125C11.028 3.72125 10.0401 4.46189 10.0401 5.758C10.0401 6.56344 10.4182 7.10966 11.08 7.26703Z" fill="#313131"/>
<path d="M11.6738 17.9229V11.4053H13.8176V17.9229H11.6738Z" fill="#313131"/>
<path d="M11.08 7.26703V9.86852C9.1372 9.66948 7.7522 7.94288 7.7522 5.70245C7.7522 3.14727 9.54846 1.07349 12.7439 1.07349C15.807 1.07349 17.6978 2.95285 17.6978 5.72097C17.6978 8.20209 16.1473 9.97961 13.5002 9.97961H12.1577V5.77652H14.0296V7.49849C14.871 7.47534 15.4099 6.89209 15.4099 5.73949C15.4099 4.40634 14.4078 3.72125 12.7061 3.72125C11.028 3.72125 10.0401 4.46189 10.0401 5.758C10.0401 6.56344 10.4182 7.10966 11.08 7.26703Z" stroke="#D5D5D2" stroke-width="0.156251"/>
<path d="M11.6738 17.9229V11.4053H13.8176V17.9229H11.6738Z" stroke="#D5D5D2" stroke-width="0.156251"/>
<path d="M34.6022 10.8319H31.915C32.1206 8.95114 33.904 7.61035 36.2184 7.61035C38.8578 7.61035 41 9.34927 41 12.4427C41 15.408 39.0587 17.2385 36.1992 17.2385C33.6364 17.2385 31.8003 15.7375 31.8003 13.1749V11.8753H36.1419V13.6874H34.3631C34.387 14.5019 34.9895 15.0236 36.1801 15.0236C37.5572 15.0236 38.265 14.0535 38.265 12.4061C38.265 10.7816 37.4998 9.82518 36.1611 9.82518C35.3291 9.82518 34.7648 10.1913 34.6022 10.8319Z" fill="#313131"/>
<path d="M23.5952 11.4065H30.3276V13.4819H23.5952V11.4065Z" fill="#313131"/>
<path d="M34.6022 10.8319H31.915C32.1206 8.95114 33.904 7.61035 36.2184 7.61035C38.8578 7.61035 41 9.34927 41 12.4427C41 15.408 39.0587 17.2385 36.1992 17.2385C33.6364 17.2385 31.8003 15.7375 31.8003 13.1749V11.8753H36.1419V13.6874H34.3631C34.387 14.5019 34.9895 15.0236 36.1801 15.0236C37.5572 15.0236 38.265 14.0535 38.265 12.4061C38.265 10.7816 37.4998 9.82518 36.1611 9.82518C35.3291 9.82518 34.7648 10.1913 34.6022 10.8319Z" stroke="#D5D5D2" stroke-width="0.156251"/>
<path d="M23.5952 11.4065H30.3276V13.4819H23.5952V11.4065Z" stroke="#D5D5D2" stroke-width="0.156251"/>
<path d="M30.9199 7.26703V9.86852C32.8627 9.66948 34.2477 7.94288 34.2477 5.70245C34.2477 3.14727 32.4514 1.07349 29.2561 1.07349C26.193 1.07349 24.3022 2.95285 24.3022 5.72097C24.3022 8.20209 25.8527 9.97961 28.4997 9.97961H29.8422V5.77652H27.9704V7.49849C27.129 7.47534 26.5901 6.89209 26.5901 5.73949C26.5901 4.40634 27.5922 3.72125 29.2939 3.72125C30.9719 3.72125 31.9599 4.46189 31.9599 5.758C31.9599 6.56344 31.5818 7.10966 30.9199 7.26703Z" fill="#313131"/>
<path d="M30.3265 17.9229V11.4053H28.1826V17.9229H30.3265Z" fill="#313131"/>
<path d="M30.9199 7.26703V9.86852C32.8627 9.66948 34.2477 7.94288 34.2477 5.70245C34.2477 3.14727 32.4514 1.07349 29.2561 1.07349C26.193 1.07349 24.3022 2.95285 24.3022 5.72097C24.3022 8.20209 25.8527 9.97961 28.4997 9.97961H29.8422V5.77652H27.9704V7.49849C27.129 7.47534 26.5901 6.89209 26.5901 5.73949C26.5901 4.40634 27.5922 3.72125 29.2939 3.72125C30.9719 3.72125 31.9599 4.46189 31.9599 5.758C31.9599 6.56344 31.5818 7.10966 30.9199 7.26703Z" stroke="#D5D5D2" stroke-width="0.156251"/>
<path d="M30.3265 17.9229V11.4053H28.1826V17.9229H30.3265Z" stroke="#D5D5D2" stroke-width="0.156251"/>
<path d="M11.08 33.6371V31.0357C9.1372 31.2348 7.7522 32.9613 7.7522 35.2018C7.7522 37.7569 9.54846 39.8307 12.7439 39.8307C15.807 39.8307 17.6978 37.9513 17.6978 35.1832C17.6978 32.7021 16.1473 30.9246 13.5002 30.9246H12.1577V35.1276H14.0296V33.4056C14.871 33.4288 15.4099 34.0121 15.4099 35.1647C15.4099 36.4979 14.4078 37.1829 12.7061 37.1829C11.028 37.1829 10.0401 36.4423 10.0401 35.1462C10.0401 34.3408 10.4182 33.7946 11.08 33.6371Z" fill="#313131"/>
<path d="M11.6738 22.9817V29.4993H13.8176V22.9817H11.6738Z" fill="#313131"/>
<path d="M11.08 33.6371V31.0357C9.1372 31.2348 7.7522 32.9613 7.7522 35.2018C7.7522 37.7569 9.54846 39.8307 12.7439 39.8307C15.807 39.8307 17.6978 37.9513 17.6978 35.1832C17.6978 32.7021 16.1473 30.9246 13.5002 30.9246H12.1577V35.1276H14.0296V33.4056C14.871 33.4288 15.4099 34.0121 15.4099 35.1647C15.4099 36.4979 14.4078 37.1829 12.7061 37.1829C11.028 37.1829 10.0401 36.4423 10.0401 35.1462C10.0401 34.3408 10.4182 33.7946 11.08 33.6371Z" stroke="#D5D5D2" stroke-width="0.156251"/>
<path d="M11.6738 22.9817V29.4993H13.8176V22.9817H11.6738Z" stroke="#D5D5D2" stroke-width="0.156251"/>
<path d="M7.39779 30.0721H10.0851C9.87945 31.9529 8.09591 33.2937 5.78161 33.2937C3.14216 33.2937 1 31.5547 1 28.4613C1 25.496 2.94134 23.6655 5.80074 23.6655C8.36369 23.6655 10.1998 25.1665 10.1998 27.7291V29.0287H5.85811V27.2167H7.63687C7.61297 26.402 7.01049 25.8804 5.81986 25.8804C4.44276 25.8804 3.73508 26.8506 3.73508 28.4979C3.73508 30.1224 4.50013 31.0787 5.83899 31.0787C6.67099 31.0787 7.23523 30.7127 7.39779 30.0721Z" fill="#313131"/>
<path d="M18.4048 29.4973H11.6724V27.4219H18.4048V29.4973Z" fill="#313131"/>
<path d="M7.39779 30.0721H10.0851C9.87945 31.9529 8.09591 33.2937 5.78161 33.2937C3.14216 33.2937 1 31.5547 1 28.4613C1 25.496 2.94134 23.6655 5.80074 23.6655C8.36369 23.6655 10.1998 25.1665 10.1998 27.7291V29.0287H5.85811V27.2167H7.63687C7.61297 26.402 7.01049 25.8804 5.81986 25.8804C4.44276 25.8804 3.73508 26.8506 3.73508 28.4979C3.73508 30.1224 4.50013 31.0787 5.83899 31.0787C6.67099 31.0787 7.23523 30.7127 7.39779 30.0721Z" stroke="#D5D5D2" stroke-width="0.156251"/>
<path d="M18.4048 29.4973H11.6724V27.4219H18.4048V29.4973Z" stroke="#D5D5D2" stroke-width="0.156251"/>
<path d="M30.9199 33.6371V31.0357C32.8627 31.2348 34.2477 32.9613 34.2477 35.2018C34.2477 37.7569 32.4514 39.8307 29.2561 39.8307C26.193 39.8307 24.3022 37.9513 24.3022 35.1832C24.3022 32.7021 25.8527 30.9246 28.4997 30.9246H29.8422V35.1276H27.9704V33.4056C27.129 33.4288 26.5901 34.0121 26.5901 35.1647C26.5901 36.4979 27.5922 37.1829 29.2939 37.1829C30.9719 37.1829 31.9599 36.4423 31.9599 35.1462C31.9599 34.3408 31.5818 33.7946 30.9199 33.6371Z" fill="#313131"/>
<path d="M30.3265 22.9817V29.4993H28.1826V22.9817H30.3265Z" fill="#313131"/>
<path d="M30.9199 33.6371V31.0357C32.8627 31.2348 34.2477 32.9613 34.2477 35.2018C34.2477 37.7569 32.4514 39.8307 29.2561 39.8307C26.193 39.8307 24.3022 37.9513 24.3022 35.1832C24.3022 32.7021 25.8527 30.9246 28.4997 30.9246H29.8422V35.1276H27.9704V33.4056C27.129 33.4288 26.5901 34.0121 26.5901 35.1647C26.5901 36.4979 27.5922 37.1829 29.2939 37.1829C30.9719 37.1829 31.9599 36.4423 31.9599 35.1462C31.9599 34.3408 31.5818 33.7946 30.9199 33.6371Z" stroke="#D5D5D2" stroke-width="0.156251"/>
<path d="M30.3265 22.9817V29.4993H28.1826V22.9817H30.3265Z" stroke="#D5D5D2" stroke-width="0.156251"/>
<path d="M34.6022 30.0721H31.915C32.1206 31.9529 33.904 33.2937 36.2184 33.2937C38.8578 33.2937 41 31.5547 41 28.4613C41 25.496 39.0587 23.6655 36.1992 23.6655C33.6364 23.6655 31.8003 25.1665 31.8003 27.7291V29.0287H36.1419V27.2167H34.3631C34.387 26.402 34.9895 25.8804 36.1801 25.8804C37.5572 25.8804 38.265 26.8506 38.265 28.4979C38.265 30.1224 37.4998 31.0787 36.1611 31.0787C35.3291 31.0787 34.7648 30.7127 34.6022 30.0721Z" fill="#313131"/>
<path d="M23.5952 29.4973H30.3276V27.4219H23.5952V29.4973Z" fill="#313131"/>
<path d="M34.6022 30.0721H31.915C32.1206 31.9529 33.904 33.2937 36.2184 33.2937C38.8578 33.2937 41 31.5547 41 28.4613C41 25.496 39.0587 23.6655 36.1992 23.6655C33.6364 23.6655 31.8003 25.1665 31.8003 27.7291V29.0287H36.1419V27.2167H34.3631C34.387 26.402 34.9895 25.8804 36.1801 25.8804C37.5572 25.8804 38.265 26.8506 38.265 28.4979C38.265 30.1224 37.4998 31.0787 36.1611 31.0787C35.3291 31.0787 34.7648 30.7127 34.6022 30.0721Z" stroke="#D5D5D2" stroke-width="0.156251"/>
<path d="M23.5952 29.4973H30.3276V27.4219H23.5952V29.4973Z" stroke="#D5D5D2" stroke-width="0.156251"/>
<path d="M22.4014 7.67065H19.7271V17.1023H22.4014V7.67065Z" fill="#313131"/>
<path d="M22.4014 23.5747H19.7271V33.0063H22.4014V23.5747Z" fill="#313131"/>
<path d="M7.88281 19.1365V21.7255H17.6254V19.1365H7.88281Z" fill="#313131"/>
<path d="M24.3118 19.1365V21.7255H34.0544V19.1365H24.3118Z" fill="#313131"/>
</svg>
