<svg width="41" height="46" viewBox="0 0 41 46" fill="none" xmlns="http://www.w3.org/2000/svg">
<path d="M13.0333 46H2.09091C0.975758 46 0 45.0242 0 43.9091V2.09091C0 0.906061 0.975758 0 2.09091 0H13.0333C14.1485 0 15.1242 0.906061 15.1242 2.09091V43.9091C15.1242 45.0242 14.1485 46 13.0333 46Z" fill="#FBFBF8"/>
<path d="M38.1243 46H27.2516C26.0667 46 25.1606 45.0242 25.1606 43.9091V2.09091C25.1606 0.906061 26.0667 0 27.2516 0H38.194C39.3788 0 40.2849 0.906061 40.2849 2.09091V43.9091C40.2152 45.0242 39.3091 46 38.1243 46Z" fill="#FBFBF8"/>
</svg>
