<svg width="32" height="32" viewBox="0 0 32 32" fill="none" xmlns="http://www.w3.org/2000/svg">
<path d="M27.9887 9.62171C27.8807 11.8719 26.2492 14.9569 23.0943 18.8696C19.8314 22.9537 17.0703 25 14.8103 25C13.4129 25 12.227 23.7574 11.2616 21.268C10.6143 18.9867 9.97223 16.7048 9.32565 14.4235C8.60856 11.9341 7.83972 10.6922 7.01462 10.6922C6.83684 10.6922 6.20827 11.058 5.12964 11.7808L4 10.38C5.18589 9.3774 6.35379 8.3741 7.50218 7.37153C9.08187 6.0567 10.2685 5.36567 11.0606 5.29339C12.9261 5.12207 14.0797 6.35089 14.511 8.98417C14.9753 11.8256 15.2986 13.5922 15.4816 14.2833C16.021 16.6419 16.6113 17.8208 17.2586 17.8208C17.7604 17.8208 18.515 17.0575 19.5231 15.5258C20.526 13.9985 21.0653 12.8333 21.1403 12.0338C21.2859 10.7146 20.7465 10.0504 19.5231 10.0504C18.9463 10.0504 18.356 10.1768 17.7462 10.4298C18.9276 6.70725 21.1778 4.90016 24.506 5.00425C26.967 5.06714 28.1289 6.60822 27.9887 9.62171Z" fill="black"/>
</svg>
